<svg width="245" height="78" viewBox="0 0 245 78" fill="none" xmlns="http://www.w3.org/2000/svg">
<path d="M81.1187 47.631L75.7255 62.7774H69.1074L86.9639 12.2859H95.1485L113.772 62.7774H106.687L101.125 47.631H81.1171H81.1187ZM99.421 41.8956C94.6427 28.6261 92.0157 21.5743 90.9298 17.7268H90.857C89.632 22.0104 86.6952 30.5458 82.8447 41.8956H99.421Z" fill="#1B5091"/>
<path d="M125.29 12.2859H131.936V57.042H158.088L157.163 62.7774H125.29V12.2859Z" fill="#1B5091"/>
<path d="M171.759 18.0213H155.564V12.2859H194.667V18.0213H178.452V62.7774H171.758V18.0213H171.759Z" fill="#1B5091"/>
<path d="M206.649 47.631L201.256 62.7774H194.637L212.494 12.2859H220.679L239.302 62.7774H232.217L226.655 47.631H206.647H206.649ZM224.951 41.8956C220.173 28.6261 217.546 21.5743 216.46 17.7268H216.387C215.162 22.0104 212.225 30.5458 208.375 41.8956H224.951Z" fill="#1B5091"/>
<path d="M69.237 68.3503H70.2707L73.6691 76.639H72.5089L71.5874 74.3261H67.8824L66.9498 76.639H65.8465L69.2338 68.3503H69.237ZM68.2601 73.3758H71.2159L70.5458 71.6582C70.2849 70.9944 70.0115 70.2844 69.7618 69.6095H69.7396C69.4899 70.2844 69.2164 70.9832 68.9319 71.6932L68.2617 73.3758H68.2601Z" fill="#D22630"/>
<path d="M82.6029 73.3056C82.6029 72.7676 82.5239 72.4237 82.3184 72.1834C82.1018 71.9319 81.762 71.8395 81.4664 71.8395C80.8184 71.8395 80.1482 72.263 79.7609 72.7214C79.772 72.8472 79.772 72.9841 79.772 73.1225V76.6373H78.7493V73.3056C78.7493 72.6991 78.6813 72.4237 78.4885 72.1945C78.2609 71.9319 77.9542 71.8395 77.6365 71.8395C76.9774 71.8395 76.3183 72.2518 75.931 72.7214V76.6357H74.9083V71.0038H75.931V71.6899L75.9531 71.701C76.4194 71.2314 77.0785 70.8765 77.8515 70.8765C78.5454 70.8765 79.2266 71.1741 79.5681 71.8491C80.2383 71.2076 80.9211 70.8765 81.694 70.8765C82.2963 70.8765 82.8195 71.0818 83.1609 71.4718C83.5023 71.8491 83.6272 72.3537 83.6272 73.121V76.6357H82.6045V73.304L82.6029 73.3056Z" fill="#D22630"/>
<path d="M86.319 74.119C86.4676 75.2301 87.2848 75.8366 88.3881 75.8366C89.161 75.8366 89.8091 75.5278 90.3212 75.1378V76.2362C89.8217 76.5561 89.0488 76.7631 88.3201 76.7631C86.5925 76.7631 85.2963 75.5947 85.2963 73.8214C85.2963 72.048 86.5814 70.8796 88.0814 70.8796C89.4455 70.8796 90.6278 71.8411 90.6278 73.6049C90.6278 73.7768 90.6168 73.9821 90.5931 74.1206H86.319V74.119ZM86.3411 73.3056H89.6368C89.5451 72.1834 88.7279 71.8061 88.0561 71.8061C87.318 71.8061 86.5213 72.2645 86.3395 73.3056H86.3411Z" fill="#D22630"/>
<path d="M92.3666 71.0054H93.3893V71.83L93.4114 71.8411C93.7986 71.2919 94.4119 70.9592 95.0711 70.9592C95.1849 70.9592 95.3097 70.9704 95.4346 71.0054V72.0242C95.2987 71.9891 95.1612 71.978 95.0363 71.978C94.2744 71.978 93.7402 72.368 93.3877 72.9745V76.6373H92.365V71.0054H92.3666Z" fill="#D22630"/>
<path d="M97.333 68.3503C97.7313 68.3503 98.049 68.6703 98.049 69.0714C98.049 69.4726 97.7313 69.7925 97.333 69.7925C96.9347 69.7925 96.6169 69.4726 96.6169 69.0714C96.6169 68.6703 96.9347 68.3503 97.333 68.3503ZM96.8208 71.0055H97.8435V76.6374H96.8208V71.0055Z" fill="#D22630"/>
<path d="M104.244 76.3747C103.766 76.6373 103.14 76.7647 102.573 76.7647C100.799 76.7647 99.538 75.5278 99.538 73.8564C99.538 72.1849 100.902 70.8796 102.641 70.8796C103.221 70.8796 103.755 71.0277 104.152 71.2346V72.2996C103.686 72.0019 103.14 71.8188 102.595 71.8188C101.379 71.8188 100.572 72.723 100.572 73.8564C100.572 74.9898 101.424 75.8255 102.63 75.8255C103.267 75.8255 103.823 75.6074 104.244 75.2763V76.3747Z" fill="#D22630"/>
<path d="M106.221 76.3636C105.857 76.0883 105.63 75.6648 105.63 75.1156C105.63 74.4853 105.925 74.0284 106.368 73.7419C106.788 73.4665 107.357 73.3646 107.936 73.3646C108.367 73.3646 108.766 73.4219 109.129 73.5127V73.0431C109.129 72.6308 109.027 72.322 108.812 72.115C108.595 71.9208 108.255 71.8062 107.778 71.8062C107.073 71.8062 106.482 72.0577 106.061 72.3665V71.3589C106.493 71.0963 107.095 70.8782 107.925 70.8782C108.606 70.8782 109.197 71.0262 109.596 71.3939C109.926 71.6916 110.152 72.1723 110.152 72.8712V75.2637C110.152 75.6075 110.277 75.859 110.583 75.859C110.697 75.859 110.822 75.824 110.914 75.7794V76.6374C110.778 76.6947 110.583 76.7409 110.369 76.7409C109.926 76.7409 109.504 76.5467 109.289 76.1456H109.267C108.949 76.4432 108.301 76.7632 107.55 76.7632C107.095 76.7632 106.596 76.6486 106.221 76.362V76.3636ZM109.131 75.356V74.3022C108.824 74.2099 108.393 74.1542 108.04 74.1542C107.346 74.1542 106.665 74.3595 106.665 75.0233C106.665 75.5725 107.131 75.8479 107.734 75.8479C108.268 75.8479 108.791 75.6298 109.132 75.356H109.131Z" fill="#D22630"/>
<path d="M112.336 71.0054H113.359V71.7154L113.381 71.7265C113.87 71.2346 114.552 70.8796 115.336 70.8796C115.95 70.8796 116.473 71.0977 116.825 71.4973C117.132 71.8523 117.292 72.2868 117.292 73.1576V76.6373H116.269V73.3518C116.269 72.7676 116.19 72.4237 116.008 72.2072C115.781 71.9318 115.417 71.8411 115.11 71.8411C114.473 71.8411 113.757 72.2423 113.361 72.7803V76.6389H112.338V71.007L112.336 71.0054Z" fill="#D22630"/>
<path d="M122.407 68.3502H123.486V75.6536H127.373V76.6373H122.405V68.3486L122.407 68.3502Z" fill="#D22630"/>
<path d="M129.022 76.3636C128.658 76.0883 128.431 75.6648 128.431 75.1156C128.431 74.4853 128.726 74.0284 129.169 73.7419C129.589 73.4665 130.158 73.3646 130.737 73.3646C131.168 73.3646 131.567 73.4219 131.93 73.5127V73.0431C131.93 72.6308 131.827 72.322 131.612 72.115C131.396 71.9208 131.056 71.8062 130.579 71.8062C129.874 71.8062 129.283 72.0577 128.862 72.3665V71.3589C129.294 71.0963 129.896 70.8782 130.726 70.8782C131.407 70.8782 131.998 71.0262 132.396 71.3939C132.727 71.6916 132.953 72.1723 132.953 72.8712V75.2637C132.953 75.6075 133.078 75.859 133.384 75.859C133.498 75.859 133.623 75.824 133.713 75.7794V76.6374C133.577 76.6947 133.384 76.7409 133.168 76.7409C132.725 76.7409 132.303 76.5467 132.088 76.1456H132.066C131.748 76.4432 131.1 76.7632 130.349 76.7632C129.894 76.7632 129.395 76.6486 129.02 76.362L129.022 76.3636ZM131.932 75.356V74.3022C131.625 74.2099 131.194 74.1542 130.841 74.1542C130.147 74.1542 129.466 74.3595 129.466 75.0233C129.466 75.5725 129.932 75.8479 130.534 75.8479C131.069 75.8479 131.592 75.6298 131.933 75.356H131.932Z" fill="#D22630"/>
<path d="M135.137 71.0054H136.16V71.7154L136.182 71.7265C136.67 71.2346 137.353 70.8796 138.137 70.8796C138.751 70.8796 139.274 71.0977 139.626 71.4973C139.933 71.8523 140.093 72.2868 140.093 73.1576V76.6373H139.07V73.3518C139.07 72.7676 138.991 72.4237 138.809 72.2072C138.581 71.9318 138.218 71.8411 137.911 71.8411C137.274 71.8411 136.558 72.2423 136.16 72.7803V76.6389H135.137V71.007V71.0054Z" fill="#D22630"/>
<path d="M144.752 70.8797C145.309 70.8797 145.729 71.0166 146.094 71.1774L146.116 71.1663V67.8918H147.139V76.6374H146.116V76.2936L146.094 76.2824C145.72 76.5451 145.196 76.7632 144.526 76.7632C143.014 76.7632 141.787 75.6521 141.787 73.9122C141.787 72.1723 142.991 70.8781 144.754 70.8781L144.752 70.8797ZM144.661 75.8478C145.217 75.8478 145.718 75.6425 146.116 75.3671V72.15C145.742 71.9558 145.241 71.795 144.741 71.795C143.559 71.795 142.821 72.6992 142.821 73.8549C142.821 75.0105 143.515 75.8463 144.662 75.8463L144.661 75.8478Z" fill="#D22630"/>
<path d="M153.822 69.3341H151.061V68.3503H157.665V69.3341H154.902V76.6374H153.822V69.3341Z" fill="#D22630"/>
<path d="M159.585 68.3503C159.983 68.3503 160.301 68.6703 160.301 69.0714C160.301 69.4726 159.983 69.7925 159.585 69.7925C159.187 69.7925 158.869 69.4726 158.869 69.0714C158.869 68.6703 159.187 68.3503 159.585 68.3503ZM159.073 71.0055H160.096V76.6374H159.073V71.0055Z" fill="#D22630"/>
<path d="M162.609 74.6795V71.932H161.575V71.0055H162.609V69.471L163.632 69.2991V71.0055H165.313V71.932H163.632V74.4853C163.632 75.1841 163.734 75.824 164.472 75.824C164.768 75.824 165.098 75.7205 165.313 75.5836V76.5563C165.086 76.6709 164.687 76.7616 164.302 76.7616C163.892 76.7616 163.393 76.6581 163.029 76.2347C162.756 75.9259 162.609 75.4674 162.609 74.6779V74.6795Z" fill="#D22630"/>
<path d="M166.881 67.8918H167.904V76.6374H166.881V67.8918Z" fill="#D22630"/>
<path d="M170.621 74.119C170.77 75.2301 171.587 75.8366 172.69 75.8366C173.463 75.8366 174.111 75.5278 174.623 75.1378V76.2362C174.124 76.5561 173.351 76.7631 172.622 76.7631C170.895 76.7631 169.599 75.5947 169.599 73.8214C169.599 72.048 170.884 70.8796 172.384 70.8796C173.748 70.8796 174.93 71.8411 174.93 73.6049C174.93 73.7768 174.919 73.9821 174.895 74.1206H170.621V74.119ZM170.643 73.3056H173.941C173.849 72.1834 173.032 71.8061 172.36 71.8061C171.622 71.8061 170.825 72.2645 170.643 73.3056Z" fill="#D22630"/>
<path d="M182.248 68.3503H183.282L186.681 76.639H185.522L184.6 74.3261H180.895L179.963 76.639H178.859L182.247 68.3503H182.248ZM181.272 73.3758H184.227L183.557 71.6582C183.296 70.9944 183.023 70.2844 182.773 69.6095H182.751C182.501 70.2844 182.228 70.9832 181.943 71.6932L181.273 73.3758H181.272Z" fill="#D22630"/>
<path d="M187.681 75.2301C188.318 75.6424 189.124 75.8366 189.818 75.8366C190.591 75.8366 191.09 75.6074 191.09 75.0582C191.09 74.3833 190.283 74.3721 189.42 74.2225C188.351 74.0394 187.51 73.7179 187.51 72.6084C187.521 71.4416 188.511 70.8796 189.807 70.8796C190.477 70.8796 191.25 71.0277 191.808 71.3254V72.3553C191.182 71.9892 190.409 71.8061 189.763 71.8061C189.047 71.8061 188.546 72.0242 188.546 72.5272C188.546 73.1687 189.341 73.1687 190.171 73.3167C191.239 73.4998 192.126 73.7975 192.126 74.9659C192.126 76.2712 190.967 76.7631 189.772 76.7631C189.056 76.7631 188.26 76.6134 187.681 76.3046V75.2285V75.2301Z" fill="#D22630"/>
<path d="M193.637 75.2301C194.274 75.6424 195.08 75.8366 195.774 75.8366C196.547 75.8366 197.046 75.6074 197.046 75.0582C197.046 74.3833 196.239 74.3721 195.376 74.2225C194.307 74.0394 193.466 73.7179 193.466 72.6084C193.477 71.4416 194.467 70.8796 195.763 70.8796C196.433 70.8796 197.206 71.0277 197.764 71.3254V72.3553C197.138 71.9892 196.365 71.8061 195.719 71.8061C195.003 71.8061 194.502 72.0242 194.502 72.5272C194.502 73.1687 195.297 73.1687 196.126 73.3167C197.195 73.4998 198.082 73.7975 198.082 74.9659C198.082 76.2712 196.923 76.7631 195.728 76.7631C195.012 76.7631 194.215 76.6134 193.637 76.3046V75.2285V75.2301Z" fill="#D22630"/>
<path d="M202.321 70.8796C204.015 70.8796 205.277 72.1611 205.277 73.8214C205.277 75.4816 204.015 76.7631 202.321 76.7631C200.627 76.7631 199.365 75.4816 199.365 73.8214C199.365 72.1611 200.627 70.8796 202.321 70.8796ZM202.321 75.8255C203.435 75.8255 204.254 74.9563 204.254 73.8229C204.254 72.6896 203.435 71.8204 202.321 71.8204C201.207 71.8204 200.388 72.6912 200.388 73.8229C200.388 74.9547 201.207 75.8255 202.321 75.8255Z" fill="#D22630"/>
<path d="M211.29 76.3747C210.812 76.6373 210.186 76.7647 209.619 76.7647C207.845 76.7647 206.584 75.5278 206.584 73.8564C206.584 72.1849 207.948 70.8796 209.687 70.8796C210.267 70.8796 210.801 71.0277 211.198 71.2346V72.2996C210.732 72.0019 210.186 71.8188 209.641 71.8188C208.425 71.8188 207.618 72.723 207.618 73.8564C207.618 74.9898 208.47 75.8255 209.676 75.8255C210.313 75.8255 210.869 75.6074 211.29 75.2763V76.3747Z" fill="#D22630"/>
<path d="M213.563 68.3503C213.961 68.3503 214.279 68.6703 214.279 69.0714C214.279 69.4726 213.961 69.7925 213.563 69.7925C213.164 69.7925 212.846 69.4726 212.846 69.0714C212.846 68.6703 213.164 68.3503 213.563 68.3503ZM213.05 71.0055H214.073V76.6374H213.05V71.0055Z" fill="#D22630"/>
<path d="M216.37 76.3636C216.006 76.0883 215.779 75.6648 215.779 75.1156C215.779 74.4853 216.074 74.0284 216.517 73.7419C216.937 73.4665 217.506 73.3646 218.085 73.3646C218.516 73.3646 218.915 73.4219 219.278 73.5127V73.0431C219.278 72.6308 219.175 72.322 218.96 72.115C218.744 71.9208 218.404 71.8062 217.927 71.8062C217.222 71.8062 216.631 72.0577 216.21 72.3665V71.3589C216.642 71.0963 217.244 70.8782 218.074 70.8782C218.755 70.8782 219.346 71.0262 219.744 71.3939C220.075 71.6916 220.301 72.1723 220.301 72.8712V75.2637C220.301 75.6075 220.426 75.859 220.732 75.859C220.846 75.859 220.971 75.824 221.061 75.7794V76.6374C220.925 76.6947 220.732 76.7409 220.516 76.7409C220.073 76.7409 219.651 76.5467 219.436 76.1456H219.414C219.096 76.4432 218.448 76.7632 217.698 76.7632C217.242 76.7632 216.743 76.6486 216.368 76.362L216.37 76.3636ZM219.28 75.356V74.3022C218.973 74.2099 218.542 74.1542 218.189 74.1542C217.495 74.1542 216.814 74.3595 216.814 75.0233C216.814 75.5725 217.28 75.8479 217.882 75.8479C218.417 75.8479 218.94 75.6298 219.281 75.356H219.28Z" fill="#D22630"/>
<path d="M222.917 74.6795V71.932H221.883V71.0055H222.917V69.471L223.939 69.2991V71.0055H225.621V71.932H223.939V74.4853C223.939 75.1841 224.042 75.824 224.78 75.824C225.076 75.824 225.406 75.7205 225.621 75.5836V76.5563C225.394 76.6709 224.995 76.7616 224.61 76.7616C224.2 76.7616 223.701 76.6581 223.337 76.2347C223.064 75.9259 222.917 75.4674 222.917 74.6779V74.6795Z" fill="#D22630"/>
<path d="M227.701 68.3503C228.1 68.3503 228.417 68.6703 228.417 69.0714C228.417 69.4726 228.1 69.7925 227.701 69.7925C227.303 69.7925 226.985 69.4726 226.985 69.0714C226.985 68.6703 227.303 68.3503 227.701 68.3503ZM227.189 71.0055H228.212V76.6374H227.189V71.0055Z" fill="#D22630"/>
<path d="M232.862 70.8796C234.557 70.8796 235.818 72.1611 235.818 73.8214C235.818 75.4816 234.557 76.7631 232.862 76.7631C231.168 76.7631 229.906 75.4816 229.906 73.8214C229.906 72.1611 231.168 70.8796 232.862 70.8796ZM232.862 75.8255C233.977 75.8255 234.795 74.9563 234.795 73.8229C234.795 72.6896 233.977 71.8204 232.862 71.8204C231.748 71.8204 230.929 72.6912 230.929 73.8229C230.929 74.9547 231.748 75.8255 232.862 75.8255Z" fill="#D22630"/>
<path d="M237.511 71.0054H238.534V71.7154L238.556 71.7265C239.044 71.2346 239.727 70.8796 240.511 70.8796C241.124 70.8796 241.647 71.0977 242 71.4973C242.307 71.8523 242.466 72.2868 242.466 73.1576V76.6373H241.444V73.3518C241.444 72.7676 241.365 72.4237 241.183 72.2072C240.955 71.9318 240.592 71.8411 240.285 71.8411C239.648 71.8411 238.932 72.2423 238.534 72.7803V76.6389H237.511V71.007V71.0054Z" fill="#D22630"/>
<path d="M57.3759 37.8222C59.0687 31.5615 59.6061 25.1671 59.2078 18.6899C59.1999 18.5673 59.1572 18.44 59.1746 18.3222C59.3185 17.3559 58.8016 17.0057 57.9749 16.7017C55.8284 15.9105 53.6598 15.2165 51.469 14.6275C51.439 14.4365 51.401 14.2439 51.3552 14.0513C50.998 12.555 50.3531 11.221 49.1597 10.0605C53.3673 10.9806 57.3442 12.2748 61.3638 13.9287C62.2095 14.2757 62.6726 14.8774 62.7485 15.7975C62.8402 16.9023 62.9571 18.007 63.0156 19.1133C63.3491 25.4011 62.8417 31.6156 61.3038 37.7155C60.3617 41.45 59.1399 44.9711 57.643 48.2805L54.3189 46.4308C55.5376 43.712 56.5571 40.8419 57.3743 37.8206L57.3759 37.8222Z" fill="#111921"/>
<path d="M4.37681 15.7783C4.47007 14.8583 4.93636 14.2693 5.77884 13.9223C8.59239 12.765 11.4407 11.7892 14.3301 10.9949C13.7785 11.8863 13.2569 12.8319 12.7685 13.8283C12.446 14.4858 12.1552 15.1321 11.8928 15.7545C10.7515 16.1317 9.61665 16.5392 8.48649 16.977C8.19881 17.0884 8.0202 17.2094 7.99174 17.5771C7.91429 18.5784 7.85897 19.5749 7.82578 20.5714L4.15552 18.4892C4.21242 17.5899 4.28355 16.6857 4.37523 15.7815L4.37681 15.7783Z" fill="#111921"/>
<path d="M52.8757 48.6993C52.8757 48.6993 52.8694 48.712 52.8662 48.7184L2.54481 20.1338C2.54481 20.1338 1.8683 31.6109 10.7373 36.5743C18.0241 40.6526 40.191 52.4274 47.8682 56.4977C47.5489 56.9084 47.2233 57.3143 46.8914 57.7155L4.16023 35.39C4.16023 35.39 4.15075 46.3179 13.1509 51.0266C19.9066 54.562 33.5855 61.5486 39.9887 64.6559C39.543 65.03 39.0909 65.3977 38.6309 65.7606L11.0961 52.1822C13.3406 59.7307 29.8789 73.5192 33.4559 73.5192C37.0329 73.5192 51.7029 60.498 56.1777 50.584L52.8757 48.6993Z" fill="#1B5091"/>
<path d="M37.9782 30.5633L36.0229 19.5303C36.3469 18.0579 40.5562 15.9057 41.5362 16.3498C42.336 16.7128 44.7876 17.9432 47.1111 18.2346C47.1111 18.2346 47.4304 19.9139 46.9546 21.5997C46.9546 21.5997 54.2762 12.6918 43.2417 7.98631C43.2417 7.98631 39.317 2.28594 32.2546 1.48684C29.3273 1.06819 23.098 0.918556 18.5015 3.14394C18.5015 3.14394 21.5632 2.76031 23.2181 3.31109C13.1952 9.66888 13.279 24.1005 13.2932 23.6166L52.0917 45.4438L37.9797 30.5617L37.9782 30.5633ZM35.8269 8.72651C35.457 8.96847 35.0777 9.27092 34.4201 9.13402C33.7563 8.99553 33.5397 8.56892 33.29 8.19325C33.1667 8.007 33.2173 7.75549 33.4054 7.63451C33.7863 7.38937 34.1451 7.08215 34.8137 7.22223C35.4902 7.3639 35.6783 7.78256 35.9407 8.16778C36.0672 8.35243 36.015 8.60553 35.8269 8.72651Z" fill="#D22630"/>
</svg>
