<?xml version="1.0" encoding="UTF-8"?>
<svg width="291px" height="60px" viewBox="0 0 291 60" version="1.1" xmlns="http://www.w3.org/2000/svg" xmlns:xlink="http://www.w3.org/1999/xlink">
    <title>investors-title-logo-tagline</title>
    <g id="investors-title-logo-tagline" stroke="none" stroke-width="1" fill="none" fill-rule="evenodd">
        <path d="M4.408,58.616 L4.408,58.328 C4.408,57.624 3.528,58.504 3.528,57.176 L3.528,48.808 C3.528,47.48 4.408,48.36 4.408,47.656 L4.408,47.368 L1,47.368 L1,47.656 C1,48.36 1.88,47.48 1.88,48.808 L1.88,57.176 C1.88,58.504 1,57.624 1,58.328 L1,58.616 L4.408,58.616 Z M13.206,58.616 L13.206,58.328 C13.206,57.384 12.102,58.616 12.102,56.376 L12.102,48.6 L18.694,58.616 L19.462,58.616 L19.462,49.608 C19.462,47.368 20.438,48.6 20.438,47.656 L20.438,47.368 L17.606,47.368 L17.606,47.656 C17.606,48.6 18.582,47.368 18.582,49.608 L18.582,55.368 L13.318,47.368 L10.31,47.368 L10.31,47.656 C10.31,48.36 11.222,47.48 11.222,48.808 L11.222,56.376 C11.222,58.616 10.214,57.384 10.214,58.328 L10.214,58.616 L13.206,58.616 Z M29.156,58.616 L29.156,58.328 C29.156,57.384 28.052,58.616 28.052,56.376 L28.052,48.6 L34.644,58.616 L35.412,58.616 L35.412,49.608 C35.412,47.368 36.388,48.6 36.388,47.656 L36.388,47.368 L33.556,47.368 L33.556,47.656 C33.556,48.6 34.532,47.368 34.532,49.608 L34.532,55.368 L29.268,47.368 L26.26,47.368 L26.26,47.656 C26.26,48.36 27.172,47.48 27.172,48.808 L27.172,56.376 C27.172,58.616 26.164,57.384 26.164,58.328 L26.164,58.616 L29.156,58.616 Z M47.426,58.904 C50.658,58.904 52.738,56.04 52.738,53 C52.738,49.96 50.85,47.08 47.618,47.08 C44.386,47.08 42.306,49.944 42.306,52.984 C42.306,56.024 44.194,58.904 47.426,58.904 Z M47.474,58.312 C44.626,58.312 44.162,55.08 44.162,52.936 C44.162,50.68 44.722,47.672 47.57,47.672 C50.418,47.672 50.882,50.904 50.882,53.048 C50.882,55.304 50.322,58.312 47.474,58.312 Z M63.712,58.728 L67.424,49.096 C68.096,47.336 68.592,48.312 68.592,47.656 L68.592,47.368 L65.872,47.368 L65.872,47.656 C65.872,48.184 66.624,47.784 66.624,48.472 C66.624,48.728 66.496,49.112 66.4,49.352 L63.744,56.408 L60.928,48.936 C60.88,48.792 60.784,48.568 60.784,48.408 C60.784,47.8 61.552,48.264 61.552,47.656 L61.552,47.368 L58.192,47.368 L58.192,47.656 C58.192,48.344 58.72,47.576 59.152,48.728 L62.912,58.728 L63.712,58.728 Z M74.35,58.616 L74.35,58.328 C74.35,57.688 73.534,58.168 73.534,57.448 C73.534,57.192 73.71,56.76 73.806,56.52 L74.206,55.48 L78.638,55.48 L79.15,56.696 C79.246,56.92 79.406,57.304 79.406,57.56 C79.406,58.184 78.574,57.72 78.574,58.328 L78.574,58.616 L82.158,58.616 L82.158,58.328 C82.158,57.592 81.662,58.536 81.054,57.048 L77.022,47.288 C77.006,47.256 76.942,47 76.862,47 C76.782,47 76.286,47.32 76.254,47.336 C76.158,47.4 75.598,47.672 75.598,47.88 C75.598,48.04 75.758,48.376 75.822,48.52 L76.014,49 L72.878,56.696 C72.142,58.488 71.502,57.64 71.502,58.328 L71.502,58.616 L74.35,58.616 Z M78.366,54.712 L74.526,54.712 L76.43,50.024 L78.366,54.712 Z M91.996,58.616 L91.996,58.328 C91.996,57.624 91.036,58.504 91.036,57.176 L91.036,48.088 L91.916,48.088 C93.5604444,48.088 93.7974815,48.6756543 93.9055748,49.1980137 L93.9354129,49.3521097 C94.0019753,49.7040494 94.068,49.992 94.572,49.992 L94.876,49.992 L94.876,47.128 C94.572,47.304 94.14,47.368 93.804,47.368 L86.62,47.368 C86.46,47.368 86.268,47.352 86.076,47.32 C85.884,47.272 85.708,47.208 85.548,47.128 L85.548,49.992 L85.852,49.992 C86.356,49.992 86.4220247,49.7040494 86.4885871,49.3521097 L86.5184252,49.1980137 C86.6265185,48.6756543 86.8635556,48.088 88.508,48.088 L89.388,48.088 L89.388,57.176 C89.388,58.504 88.428,57.624 88.428,58.328 L88.428,58.616 L91.996,58.616 Z M104.074,58.616 L104.074,58.328 C104.074,57.624 103.194,58.504 103.194,57.176 L103.194,48.808 C103.194,47.48 104.074,48.36 104.074,47.656 L104.074,47.368 L100.666,47.368 L100.666,47.656 C100.666,48.36 101.546,47.48 101.546,48.808 L101.546,57.176 C101.546,58.504 100.666,57.624 100.666,58.328 L100.666,58.616 L104.074,58.616 Z M114.888,58.728 L118.6,49.096 C119.272,47.336 119.768,48.312 119.768,47.656 L119.768,47.368 L117.048,47.368 L117.048,47.656 C117.048,48.184 117.8,47.784 117.8,48.472 C117.8,48.728 117.672,49.112 117.576,49.352 L114.92,56.408 L112.104,48.936 C112.056,48.792 111.96,48.568 111.96,48.408 C111.96,47.8 112.728,48.264 112.728,47.656 L112.728,47.368 L109.368,47.368 L109.368,47.656 C109.368,48.344 109.896,47.576 110.328,48.728 L114.088,58.728 L114.888,58.728 Z M133.43,58.616 L133.43,55.688 L133.142,55.688 C131.942,55.688 133.43,57.896 130.39,57.896 L127.718,57.896 L127.718,53.128 L128.95,53.128 C130.47,53.128 129.558,54.28 130.598,54.28 L130.87,54.28 L130.87,51.336 L130.598,51.336 C129.606,51.336 130.662,52.408 128.95,52.408 L127.718,52.408 L127.718,48.088 L130.054,48.088 C132.358,48.088 131.398,49.912 132.454,49.912 L132.758,49.912 L132.758,47.128 C132.454,47.304 132.022,47.368 131.686,47.368 L125.206,47.368 L125.206,47.656 C125.206,48.36 126.07,47.48 126.07,48.808 L126.07,57.176 C126.07,58.504 125.19,57.624 125.19,58.328 L125.19,58.616 L133.43,58.616 Z M153.058,58.616 C154.946,58.616 157.154,57.784 157.154,55.56 C157.154,53.528 155.266,52.776 153.506,52.744 L153.506,52.712 C155.042,52.568 156.482,51.592 156.482,49.928 C156.482,48.024 154.722,47.368 153.458,47.368 L148.194,47.368 L148.194,47.656 C148.194,48.36 149.074,47.48 149.074,48.808 L149.074,57.176 C149.074,58.504 148.194,57.624 148.194,58.328 L148.194,58.616 L153.058,58.616 Z M152.146,52.44 L150.722,52.44 L150.722,48.04 L152.61,48.04 C153.922,48.04 154.706,48.744 154.706,50.184 C154.706,51.72 153.57,52.44 152.146,52.44 Z M152.77,57.944 L150.722,57.944 L150.722,53.112 L152.274,53.112 C153.938,53.112 155.378,53.528 155.378,55.448 C155.378,57.128 154.386,57.944 152.77,57.944 Z M169.536,58.616 L169.536,58.328 C169.536,57.624 168.656,58.504 168.656,57.176 L168.656,53.848 L171.584,49.032 C172.56,47.416 172.912,48.232 172.912,47.656 L172.912,47.368 L170.064,47.368 L170.064,47.656 C170.064,48.12 170.88,47.864 170.88,48.296 C170.88,48.536 170.576,49 170.464,49.208 L168.288,52.984 L165.92,49.032 C165.824,48.888 165.584,48.504 165.584,48.312 C165.584,47.768 166.336,48.184 166.336,47.656 L166.336,47.368 L162.704,47.368 L162.704,47.656 C162.704,48.28 163.088,47.448 163.968,48.904 L167.008,53.96 L167.008,57.176 C167.008,58.504 166.112,57.624 166.112,58.328 L166.112,58.616 L169.536,58.616 Z M190.764,58.616 L190.764,58.328 C190.764,57.624 189.884,58.504 189.884,57.176 L189.884,48.808 C189.884,47.48 190.764,48.36 190.764,47.656 L190.764,47.368 L187.356,47.368 L187.356,47.656 C187.356,48.36 188.236,47.48 188.236,48.808 L188.236,57.176 C188.236,58.504 187.356,57.624 187.356,58.328 L187.356,58.616 L190.764,58.616 Z M199.562,58.616 L199.562,58.328 C199.562,57.384 198.458,58.616 198.458,56.376 L198.458,48.6 L205.05,58.616 L205.818,58.616 L205.818,49.608 C205.818,47.368 206.794,48.6 206.794,47.656 L206.794,47.368 L203.962,47.368 L203.962,47.656 C203.962,48.6 204.938,47.368 204.938,49.608 L204.938,55.368 L199.674,47.368 L196.666,47.368 L196.666,47.656 C196.666,48.36 197.578,47.48 197.578,48.808 L197.578,56.376 C197.578,58.616 196.57,57.384 196.57,58.328 L196.57,58.616 L199.562,58.616 Z M216.024,58.904 C218.088,58.904 219.72,57.288 219.72,55.224 C219.72,51.048 214.008,52.232 214.008,49.48 C214.008,48.424 214.856,47.752 215.88,47.752 C218.04,47.752 217.672,50.072 218.376,50.072 L218.872,50.072 L218.872,47.528 L218.248,47.528 C218.168,47.624 218.056,47.736 217.928,47.736 C217.672,47.736 217.112,47.08 215.896,47.08 C214.184,47.08 212.776,48.36 212.776,50.072 C212.776,54.152 218.456,52.776 218.456,55.96 C218.456,57.304 217.352,58.184 216.056,58.184 C213.448,58.184 213.64,55.704 213.048,55.704 L212.536,55.704 L212.536,58.696 L213.272,58.696 C213.336,58.552 213.496,58.376 213.672,58.376 C213.976,58.376 215,58.904 216.024,58.904 Z M231.926,58.616 L231.926,58.328 C231.926,57.624 230.966,58.504 230.966,57.176 L230.966,48.088 L231.846,48.088 C233.490444,48.088 233.727481,48.6756543 233.835575,49.1980137 L233.865413,49.3521097 C233.931975,49.7040494 233.998,49.992 234.502,49.992 L234.806,49.992 L234.806,47.128 C234.502,47.304 234.07,47.368 233.734,47.368 L226.55,47.368 C226.39,47.368 226.198,47.352 226.006,47.32 C225.814,47.272 225.638,47.208 225.478,47.128 L225.478,49.992 L225.782,49.992 C226.286,49.992 226.352025,49.7040494 226.418587,49.3521097 L226.448425,49.1980137 C226.556519,48.6756543 226.793556,48.088 228.438,48.088 L229.318,48.088 L229.318,57.176 C229.318,58.504 228.358,57.624 228.358,58.328 L228.358,58.616 L231.926,58.616 Z M244.004,58.616 L244.004,58.328 C244.004,57.624 243.124,58.504 243.124,57.176 L243.124,48.808 C243.124,47.48 244.004,48.36 244.004,47.656 L244.004,47.368 L240.596,47.368 L240.596,47.656 C240.596,48.36 241.476,47.48 241.476,48.808 L241.476,57.176 C241.476,58.504 240.596,57.624 240.596,58.328 L240.596,58.616 L244.004,58.616 Z M252.802,58.616 L252.802,58.328 C252.802,57.384 251.698,58.616 251.698,56.376 L251.698,48.6 L258.29,58.616 L259.058,58.616 L259.058,49.608 C259.058,47.368 260.034,48.6 260.034,47.656 L260.034,47.368 L257.202,47.368 L257.202,47.656 C257.202,48.6 258.178,47.368 258.178,49.608 L258.178,55.368 L252.914,47.368 L249.906,47.368 L249.906,47.656 C249.906,48.36 250.818,47.48 250.818,48.808 L250.818,56.376 C250.818,58.616 249.81,57.384 249.81,58.328 L249.81,58.616 L252.802,58.616 Z M270.928,58.904 C272.704,58.904 273.76,58.136 274.736,56.728 L274.192,56.296 C273.472,57.128 272.768,58.088 271.216,58.088 C268.496,58.088 267.712,55.08 267.712,52.952 C267.712,50.936 268.24,47.752 270.848,47.752 C273.6,47.752 272.992,50.648 273.968,50.648 L274.368,50.648 L274.368,47.704 L273.744,47.704 C273.712,47.832 273.632,47.944 273.488,47.944 C273.088,47.944 272.384,47.08 270.752,47.08 C267.52,47.08 265.936,50.392 265.936,52.984 C265.936,55.96 267.664,58.904 270.928,58.904 Z M287.086,58.616 L287.086,58.328 C287.086,57.624 286.126,58.504 286.126,57.176 L286.126,48.088 L287.006,48.088 C288.650444,48.088 288.887481,48.6756543 288.995575,49.1980137 L289.025413,49.3521097 C289.091975,49.7040494 289.158,49.992 289.662,49.992 L289.966,49.992 L289.966,47.128 C289.662,47.304 289.23,47.368 288.894,47.368 L281.71,47.368 C281.55,47.368 281.358,47.352 281.166,47.32 C280.974,47.272 280.798,47.208 280.638,47.128 L280.638,49.992 L280.942,49.992 C281.446,49.992 281.512025,49.7040494 281.578587,49.3521097 L281.608425,49.1980137 C281.716519,48.6756543 281.953556,48.088 283.598,48.088 L284.478,48.088 L284.478,57.176 C284.478,58.504 283.518,57.624 283.518,58.328 L283.518,58.616 L287.086,58.616 Z" id="INNOVATIVEBYINSTINCT" fill="#75787B" fill-rule="nonzero"></path>
        <g id="Group" transform="translate(1.000000, 1.000000)" fill="#212121">
            <path d="M0,36.279 L0,35.37 C0,33.145 2.775,35.926 2.775,31.732 L2.775,5.306 C2.775,1.113 0,3.891 0,1.667 L0,0.759 L10.76,0.759 L10.76,1.667 C10.76,3.891 7.981,1.113 7.981,5.306 L7.981,31.732 C7.981,35.926 10.76,33.145 10.76,35.37 L10.76,36.279 L0,36.279" id="Fill-2"></path>
            <path d="M12.33,12.127 L19.353,11.925 L19.353,14.45 C21.676,12.33 24.05,11.369 27.182,11.369 C32.689,11.369 35.216,13.947 35.216,18.19 L35.216,31.985 C35.216,35.571 37.893,33.097 37.893,35.37 L37.893,36.279 L27.637,36.279 L27.637,35.37 C27.637,33.097 30.366,35.571 30.366,31.985 L30.366,19.606 C30.366,16.421 29.961,13.795 25.313,13.795 C23.393,13.795 20.714,15.056 19.656,16.776 L19.656,31.985 C19.656,35.571 22.383,33.097 22.383,35.37 L22.383,36.279 L12.33,36.279 L12.33,35.37 C12.33,33.196 14.803,35.421 14.803,31.985 L14.803,16.421 C14.803,12.985 12.33,15.158 12.33,13.138 L12.33,12.127" id="Fill-3"></path>
            <path d="M55.833,20.87 C56.339,19.757 57.501,17.079 57.501,15.917 C57.501,13.846 54.67,14.956 54.67,13.038 L54.67,12.127 L64.269,12.127 L64.269,13.038 C64.269,15.362 62.504,12.227 60.177,17.637 L51.892,36.632 L49.112,36.632 L40.42,17.129 C38.298,12.33 36.732,15.411 36.732,13.038 L36.732,12.127 L48.405,12.127 L48.405,13.038 C48.405,14.956 45.574,13.946 45.574,15.666 C45.574,16.27 46.028,17.129 46.233,17.637 L51.638,30.72 L55.833,20.87" id="Fill-4"></path>
            <path d="M68.162,23.396 C67.858,28.902 70.787,34.614 76.951,34.614 C80.136,34.614 82.409,32.793 84.38,30.419 L86.097,31.731 C83.521,35.218 80.337,37.038 75.942,37.038 C68.415,37.038 62.958,31.478 62.958,23.951 C62.958,16.827 67.807,11.369 75.085,11.369 C82.005,11.369 85.848,16.827 85.644,23.396 L68.162,23.396 Z M80.287,20.97 C80.541,17.282 79.074,13.491 74.781,13.491 C70.538,13.491 68.616,17.18 68.313,20.97 L80.287,20.97 L80.287,20.97 Z" id="Fill-5"></path>
            <path d="M87.058,32.187 C87.058,30.57 88.473,29.506 90.042,29.506 C91.305,29.506 93.023,30.317 93.023,31.784 C93.023,32.187 92.769,32.692 92.769,33.097 C92.769,34.814 95.093,34.916 96.305,34.916 C98.832,34.916 102.016,33.702 102.016,30.824 C102.016,24.456 88.221,27.286 88.221,18.747 C88.221,13.746 93.93,11.37 98.225,11.37 C100.752,11.37 105.655,12.229 105.655,15.613 C105.655,17.231 104.239,18.09 102.772,18.09 C101.509,18.09 99.942,17.382 99.942,15.866 C99.942,15.511 100.045,15.158 100.045,14.805 C100.045,13.644 98.276,13.493 97.417,13.493 C95.447,13.493 92.817,14.755 92.817,17.029 C92.817,22.99 106.865,20.362 106.865,29.053 C106.865,34.459 101.207,37.038 96.457,37.038 C93.729,37.038 87.058,35.974 87.058,32.187" id="Fill-6"></path>
            <path d="M107.724,13.693 C107.724,11.521 111.263,13.491 111.263,9.854 L111.263,6.518 C111.263,5.204 111.767,5.054 112.877,5.002 L116.112,4.8 L116.112,12.127 L122.077,12.127 L122.077,14.856 L116.112,14.856 L116.112,29.863 C116.112,32.238 116.618,34.31 119.449,34.31 C120.608,34.31 121.165,34.157 122.175,33.602 L122.53,33.4 L123.492,34.965 C121.974,36.228 119.345,37.038 117.326,37.038 C112.323,37.038 111.263,33.602 111.263,31.074 L111.263,14.856 L107.724,14.856 L107.724,13.693" id="Fill-7"></path>
            <path d="M148.45,24.001 C148.45,31.126 143.244,37.038 135.919,37.038 C128.745,37.038 123.087,31.731 123.087,24.405 C123.087,17.282 128.291,11.369 135.618,11.369 C142.792,11.369 148.45,16.676 148.45,24.001 M128.695,23.951 C128.695,28.7 129.905,35.168 135.87,35.168 C141.579,35.168 142.84,28.902 142.84,24.456 C142.84,19.707 141.729,13.238 135.665,13.238 C130.057,13.238 128.695,19.504 128.695,23.951" id="Fill-8"></path>
            <path d="M157.142,19.554 L157.242,19.554 C157.999,16.423 160.374,11.369 164.164,11.369 C165.935,11.369 167.447,12.379 167.447,14.25 C167.447,15.817 166.031,16.827 164.521,16.827 C163.203,16.827 162.447,16.118 161.843,16.118 C159.215,16.118 157.092,23.9 157.092,27.286 L157.092,31.984 C157.092,35.926 160.174,32.795 160.174,35.371 L160.174,36.279 L149.362,36.279 L149.362,35.371 C149.362,32.843 152.292,35.825 152.292,31.984 L152.292,16.423 C152.292,12.583 149.362,15.564 149.362,13.036 L149.362,12.127 L157.142,11.924 L157.142,19.554" id="Fill-9"></path>
            <path d="M167.651,32.187 C167.651,30.57 169.067,29.506 170.631,29.506 C171.896,29.506 173.611,30.317 173.611,31.784 C173.611,32.187 173.362,32.692 173.362,33.097 C173.362,34.814 175.686,34.916 176.899,34.916 C179.426,34.916 182.605,33.702 182.605,30.824 C182.605,24.456 168.814,27.286 168.814,18.747 C168.814,13.746 174.523,11.37 178.816,11.37 C181.343,11.37 186.243,12.229 186.243,15.613 C186.243,17.231 184.83,18.09 183.366,18.09 C182.104,18.09 180.536,17.382 180.536,15.866 C180.536,15.511 180.635,15.158 180.635,14.805 C180.635,13.644 178.87,13.493 178.01,13.493 C176.042,13.493 173.41,14.755 173.41,17.029 C173.41,22.99 187.458,20.362 187.458,29.053 C187.458,34.459 181.801,37.038 177.051,37.038 C174.32,37.038 167.651,35.974 167.651,32.187" id="Fill-10"></path>
            <path d="M212.978,31.731 C212.978,35.924 216.007,33.147 216.007,35.371 L216.007,36.279 L204.738,36.279 L204.738,35.371 C204.738,33.147 207.771,35.924 207.771,31.731 L207.771,3.031 L204.993,3.031 C195.644,3.031 200.696,9.046 196.604,9.046 L195.644,9.046 L195.644,0 C196.604,0.557 197.968,0.759 199.029,0.759 L221.717,0.759 C222.775,0.759 224.142,0.557 225.101,0 L225.101,9.046 L224.142,9.046 C220.05,9.046 225.101,3.031 215.751,3.031 L212.978,3.031 L212.978,31.731" id="Fill-11"></path>
            <path d="M233.396,31.985 C233.396,35.421 235.82,33.198 235.82,35.37 L235.82,36.279 L226.069,36.279 L226.069,35.37 C226.069,33.198 228.543,35.421 228.543,31.985 L228.543,16.421 C228.543,12.986 226.069,15.21 226.069,13.038 L226.069,12.127 L233.396,11.925 L233.396,31.985 Z M233.648,5.306 C233.648,6.975 232.232,8.387 230.567,8.387 C228.898,8.387 227.482,6.975 227.482,5.306 C227.482,3.638 228.898,2.224 230.567,2.224 C232.232,2.224 233.648,3.638 233.648,5.306 L233.648,5.306 Z" id="Fill-12"></path>
            <path d="M237.082,13.693 C237.082,11.521 240.62,13.491 240.62,9.854 L240.62,6.518 C240.62,5.204 241.126,5.054 242.238,5.002 L245.473,4.8 L245.473,12.127 L251.434,12.127 L251.434,14.856 L245.473,14.856 L245.473,29.863 C245.473,32.238 245.976,34.31 248.806,34.31 C249.97,34.31 250.525,34.157 251.534,33.602 L251.889,33.4 L252.847,34.965 C251.332,36.228 248.705,37.038 246.682,37.038 C241.682,37.038 240.62,33.602 240.62,31.074 L240.62,14.856 L237.082,14.856 L237.082,13.693" id="Fill-13"></path>
            <path d="M261.792,31.985 C261.792,35.52 264.369,33.145 264.369,35.37 L264.369,36.279 L254.261,36.279 L254.261,35.37 C254.261,33.097 256.941,35.573 256.941,31.985 L256.941,5.053 C256.941,1.467 254.261,3.942 254.261,1.667 L254.261,0.759 L261.792,0.557 L261.792,31.985" id="Fill-14"></path>
            <path d="M270.532,23.396 C270.23,28.902 273.161,34.614 279.327,34.614 C282.508,34.614 284.784,32.793 286.755,30.419 L288.471,31.731 C285.895,35.218 282.711,37.038 278.315,37.038 C270.785,37.038 265.329,31.478 265.329,23.951 C265.329,16.827 270.181,11.369 277.458,11.369 C284.38,11.369 288.219,16.827 288.019,23.396 L270.532,23.396 Z M282.662,20.97 C282.911,17.282 281.448,13.491 277.152,13.491 C272.908,13.491 270.989,17.18 270.684,20.97 L282.662,20.97 L282.662,20.97 Z" id="Fill-15"></path>
        </g>
    </g>
</svg>